<?xml version="1.0" standalone="no"?>
<!DOCTYPE svg PUBLIC "-//W3C//DTD SVG 20010904//EN"
 "http://www.w3.org/TR/2001/REC-SVG-20010904/DTD/svg10.dtd">
<svg version="1.0" xmlns="http://www.w3.org/2000/svg"
 width="1195.000000pt" height="1195.000000pt" viewBox="0 0 1195.000000 1195.000000"
 preserveAspectRatio="xMidYMid meet">
<metadata>
Created by potrace 1.11, written by Peter Selinger 2001-2013
</metadata>
<g transform="translate(0.000000,1195.000000) scale(0.100000,-0.100000)"
fill="#000000" stroke="none">
<path d="M1462 11564 c-126 -38 -195 -98 -261 -225 -22 -44 -39 -79 -36 -79 2
0 -2 -15 -10 -33 -15 -36 -42 -171 -53 -262 -14 -123 -6 -574 13 -715 2 -14 6
-43 9 -65 3 -22 8 -65 11 -95 6 -49 16 -124 29 -200 3 -14 10 -59 16 -100 7
-41 14 -84 17 -95 11 -55 24 -123 29 -150 38 -231 194 -870 319 -1309 l54
-190 -49 -80 c-83 -139 -277 -503 -286 -536 0 -3 -22 -50 -49 -105 -46 -98
-120 -266 -155 -355 -41 -105 -122 -316 -124 -325 -4 -12 -13 -39 -32 -85 -24
-61 -131 -398 -197 -619 -27 -90 -38 -115 -53 -117 -10 -1 -57 -7 -104 -13
-47 -6 -96 -13 -110 -16 -13 -3 -42 -7 -65 -11 -138 -20 -341 -67 -352 -80
-13 -18 2 -64 21 -64 6 0 63 11 126 24 63 14 133 27 155 30 23 4 52 9 65 11
51 10 151 25 206 31 53 6 57 5 50 -12 -18 -46 -49 -207 -62 -324 -12 -106 -12
-109 -13 -251 l-1 -136 -80 -17 c-85 -18 -313 -90 -422 -133 l-68 -26 0 -43 0
-43 68 26 c113 44 286 100 401 131 l110 30 6 -46 c31 -242 104 -521 195 -742
21 -50 25 -72 17 -77 -6 -4 -30 -17 -52 -29 -72 -39 -139 -77 -180 -102 -22
-14 -49 -30 -60 -36 -33 -18 -247 -155 -295 -190 -25 -18 -46 -40 -48 -50 -4
-20 15 -46 35 -46 7 0 60 31 116 68 169 114 313 201 489 295 21 12 39 19 41
16 2 -2 26 -49 52 -104 47 -96 133 -252 179 -325 277 -436 505 -720 886 -1100
289 -289 584 -543 910 -784 63 -47 120 -89 126 -94 71 -60 565 -377 739 -474
11 -7 47 -27 80 -47 76 -44 519 -268 605 -305 467 -204 891 -335 1230 -382 24
-3 56 -8 70 -11 14 -2 115 -6 225 -8 178 -3 271 2 370 19 17 3 50 8 75 11 25
3 97 17 160 31 361 80 747 217 1150 411 74 36 149 72 165 79 233 109 806 458
1090 663 39 28 81 59 94 68 141 102 529 414 601 482 9 9 57 52 106 96 141 127
400 387 535 540 345 388 615 779 790 1146 l42 86 51 -27 c28 -15 75 -42 104
-59 29 -17 55 -31 58 -31 5 0 56 -32 257 -164 82 -53 156 -96 164 -94 21 4 38
32 30 51 -10 26 -421 291 -540 347 -23 11 -52 28 -65 38 l-23 18 21 49 c41 95
113 310 144 430 14 55 47 233 61 329 3 22 7 41 9 43 1 2 38 -6 82 -18 43 -11
93 -24 109 -29 39 -10 245 -82 313 -109 l52 -21 0 45 c0 25 -1 45 -3 45 -1 0
-27 9 -57 21 -133 50 -361 122 -382 120 -2 0 -27 8 -56 17 l-52 18 -4 189 c-3
105 -7 201 -10 215 -4 14 -8 41 -11 61 -7 51 -42 220 -50 242 -7 16 -3 17 36
12 86 -10 292 -45 414 -70 129 -26 150 -26 158 5 9 35 -17 51 -103 66 -14 3
-50 10 -80 16 -30 6 -59 12 -65 14 -5 1 -57 9 -115 19 -58 9 -116 19 -130 21
-14 2 -52 8 -84 12 -52 6 -60 10 -67 32 -4 14 -17 59 -29 100 -52 180 -164
523 -243 745 -145 403 -387 918 -603 1280 l-55 93 66 238 c135 482 244 940
320 1339 7 39 53 320 59 365 18 133 27 210 45 405 9 99 7 514 -4 585 -40 278
-121 441 -263 526 -137 83 -397 81 -679 -6 -68 -21 -190 -64 -228 -80 -237
-105 -382 -176 -530 -260 -38 -22 -77 -43 -85 -47 -8 -3 -37 -21 -65 -38 -27
-17 -57 -34 -65 -38 -8 -4 -28 -16 -45 -27 -16 -11 -42 -26 -57 -35 -103 -58
-648 -425 -753 -507 -31 -25 -423 -315 -432 -321 -6 -4 -74 8 -150 27 -143 36
-298 70 -368 80 -23 4 -52 8 -65 11 -32 6 -75 13 -125 20 -22 3 -53 8 -70 10
-38 6 -101 13 -185 20 -36 4 -81 8 -100 10 -180 20 -846 27 -1055 11 -233 -18
-336 -29 -565 -62 -91 -13 -349 -66 -493 -102 -101 -25 -152 -33 -162 -27 -7
6 -91 69 -187 141 -487 368 -958 680 -1355 898 -114 63 -406 206 -419 206 -3
0 -20 6 -37 14 -232 104 -476 164 -667 163 -80 0 -123 -6 -178 -23z"/>
</g>
</svg>
